<?xml version="1.0" encoding="utf-8"?>
<!-- Generator: Adobe Illustrator 21.1.0, SVG Export Plug-In . SVG Version: 6.00 Build 0)  -->
<svg version="1.1" id="Laag_1" xmlns="http://www.w3.org/2000/svg" xmlns:xlink="http://www.w3.org/1999/xlink" x="0px" y="0px"
	 viewBox="0 0 500 500" style="enable-background:new 0 0 500 500;" xml:space="preserve">
<style type="text/css">
	.st0{fill:url(#SVGID_1_);}
	.st1{fill:url(#SVGID_2_);}
	.st2{fill:url(#SVGID_3_);}
</style>
<linearGradient id="SVGID_1_" gradientUnits="userSpaceOnUse" x1="266.9284" y1="69.7066" x2="407.1398" y2="312.56">
	<stop  offset="0" style="stop-color:#262626"/>
	<stop  offset="0.533" style="stop-color:#282828"/>
	<stop  offset="0.7425" style="stop-color:#2F2F2F"/>
	<stop  offset="0.8947" style="stop-color:#3B3B3B"/>
	<stop  offset="1" style="stop-color:#494949"/>
</linearGradient>
<path class="st0" d="M207.2,112.8c0,0,52.1-68.3,107.7-15.7s120.2,120.5,120.2,120.5s32.3,32.3,4.2,64.4
	c-23.9,27.4-35.6,32.6-35.6,32.6L207.2,112.8z"/>
<linearGradient id="SVGID_2_" gradientUnits="userSpaceOnUse" x1="399.5451" y1="59.5686" x2="452.3961" y2="151.1093">
	<stop  offset="0" style="stop-color:#262626"/>
	<stop  offset="0.1026" style="stop-color:#353535"/>
	<stop  offset="0.2446" style="stop-color:#404040"/>
	<stop  offset="0.4447" style="stop-color:#474747"/>
	<stop  offset="1" style="stop-color:#494949"/>
</linearGradient>
<path class="st1" d="M481.2,65.2c0,0-2.7-3.3-9.7-10.2c-7.1-7-10.3-9.6-10.3-9.6s-16.8-15.2-29.8-3.9c-13,11.3-33.4,30-33.4,30
	l-36.5,31.6l0,0l-3.8,3.1c0,0-10,6.3-0.3,16.2c7.6,7.7,18,18,22.3,22.1l0,0c0,0,14,14.4,24,24.2c10,9.7,16.4-0.1,16.4-0.1l3.2-3.7
	l0,0l32.1-36.9c0,0,18.7-20.3,30.1-33.3C496.7,81.8,481.2,65.2,481.2,65.2z"/>
<g>
	<linearGradient id="SVGID_3_" gradientUnits="userSpaceOnUse" x1="129.3148" y1="152.4662" x2="295.7224" y2="440.6927">
		<stop  offset="0" style="stop-color:#F9CC7D"/>
		<stop  offset="0.3914" style="stop-color:#F7C97A"/>
		<stop  offset="0.6851" style="stop-color:#F1C170"/>
		<stop  offset="0.9462" style="stop-color:#E8B460"/>
		<stop  offset="1" style="stop-color:#E5B05C"/>
	</linearGradient>
	<path class="st2" d="M200,122.6c0,0-37.8,55.9-184.8,95.9c0,0-19,5.6,12.4,31.8c8.2,6.8,16.9,14.8,26,23.6l82.3-14.5l-63.5,33.2
		c76.3,77.8,168,191.9,189.5,166.9c0,0,1.9-1,25.9-26c32-33.3,103.6-111.1,103.6-111.1L200,122.6z"/>
</g>
</svg>
